<svg id="Capa_1" data-name="Capa 1" xmlns="http://www.w3.org/2000/svg" viewBox="0 0 150 150"><title>Artboard 5</title><path d="M24.24,62c.11,2.13-1.74,2.71-1.89,2C17.56,41.28,42.91,16.67,61.43,8.72A49.1,49.1,0,0,1,80.7,4.66c3-.07,10.52,1,14.12,2.75,6.28,3.13,12.47,10.08,13.29,18.49,1.56,15.92-8,24.22-10,27.06a24.41,24.41,0,0,1,19.2,3.14c6.51,4,10,9.37,10.8,16.87,1.55,15.18-10.05,28.77-20,38.85a205.42,205.42,0,0,1-39.69,31.28c-1.45.87-2.74,1.17-1.26-.46,0,0,.43-1-.58-.55-3.85,1.56-7.66,3.31-12,3.23a.28.28,0,0,1-.07-.55c1.08-.28,2.2-.49,3.22-.85a13,13,0,0,0,3.38-1.71c.8-.58.58-1.45-.1-1.33-4.73.89-9.69,2-14.94,2.23a4.19,4.19,0,0,1-3-1.08h0c-2,0-4,0-5.89,0a5.07,5.07,0,0,1-4-1.62c-3.14-3.13-.24-13.6,3.35-20.65,3.06-6,9.59-15,22.22-25.05.28-4.64.65-39.09.81-51.92.14-11.29-2.94-17.23,0-18.72,2.62-1.36,7.57,2.06,10.34,5.76,4.5,6,2.23,24.9,2.23,24.9s-1.86,14.57-4.29,34C79.35,81.15,87.7,77.27,98.4,74.33a.41.41,0,0,1,.25.78C86.2,79.7,77.81,85.42,67.16,93.94c-1.16,7.2-2.15,13.3-3.37,20.86-.3,1.87.44,2,1,1.66,3.53-1.88,5.65-4.65,8.07-7.06a.54.54,0,0,1,.88.6c-2.47,5.55-12.37,15.65-14.35,7.35-1.43-6-1.15-11.15-1.15-16.81-8.12,6.64-14.71,13.06-19.79,22.39-3.05,6.59-8.09,18.77,4.67,16.09,9.55-2,17-6.15,24.45-11.51a205.91,205.91,0,0,0,22.51-18c12.06-11.5,24.37-25.46,25.44-42.88.5-8.09-5-12.85-13-11.38-5.73,1.05-11.09,4.28-16.2,7a2,2,0,0,1-1.54.14l-5.13-1.59a1.29,1.29,0,0,1-.64-2c8.62-11.27,16.57-21.3,17.53-36.28C97.09,13.66,91.34,8,82.43,8.18c-10.41.23-20,2.7-28.61,8.48a94.62,94.62,0,0,0-16.64,15C31,38.63,29,42.69,27,47.72,24.39,54.22,24,57.91,24.24,62Z"/></svg>